<svg width="14" height="14" viewBox="0 0 14 14" fill="none" xmlns="http://www.w3.org/2000/svg">
<g id="icon/bytesize:settingsattach_file">
<mask id="mask0_779_2480" style="mask-type:alpha" maskUnits="userSpaceOnUse" x="0" y="0" width="14" height="14">
<rect id="Bounding box" width="14" height="14" fill="#D9D9D9"/>
</mask>
<g mask="url(#mask0_779_2480)">
<path id="attach_file" d="M10.5002 9.18752C10.5002 10.1986 10.1453 11.059 9.43558 11.7688C8.72586 12.4785 7.86544 12.8334 6.85433 12.8334C5.84322 12.8334 4.9828 12.4785 4.27308 11.7688C3.56336 11.059 3.2085 10.1986 3.2085 9.18752V3.79169C3.2085 3.06252 3.4637 2.44273 3.97412 1.93231C4.48454 1.4219 5.10433 1.16669 5.8335 1.16669C6.56266 1.16669 7.18245 1.4219 7.69287 1.93231C8.20329 2.44273 8.4585 3.06252 8.4585 3.79169V8.89585C8.4585 9.34308 8.30294 9.72224 7.99183 10.0334C7.68072 10.3445 7.30155 10.5 6.85433 10.5C6.40711 10.5 6.02794 10.3445 5.71683 10.0334C5.40572 9.72224 5.25016 9.34308 5.25016 8.89585V3.50002H6.41683V8.89585C6.41683 9.02224 6.45815 9.12676 6.54079 9.2094C6.62343 9.29204 6.72794 9.33335 6.85433 9.33335C6.98072 9.33335 7.08523 9.29204 7.16787 9.2094C7.25051 9.12676 7.29183 9.02224 7.29183 8.89585V3.79169C7.28211 3.38335 7.1387 3.03822 6.86162 2.75627C6.58454 2.47433 6.24183 2.33335 5.8335 2.33335C5.42516 2.33335 5.08002 2.47433 4.79808 2.75627C4.51613 3.03822 4.37516 3.38335 4.37516 3.79169V9.18752C4.36544 9.8778 4.60363 10.4636 5.08975 10.9448C5.57586 11.4261 6.16405 11.6667 6.85433 11.6667C7.53488 11.6667 8.11336 11.4261 8.58975 10.9448C9.06613 10.4636 9.31405 9.8778 9.3335 9.18752V3.50002H10.5002V9.18752Z" fill="#0A566C"/>
</g>
</g>
</svg>
