<svg width="14" height="14" viewBox="0 0 14 14" fill="none" xmlns="http://www.w3.org/2000/svg">
<g id="icon/ri:chat-delete-line">
<path id="Vector" d="M3.7655 11.0833L1.16675 13.125V2.33333C1.16675 2.17862 1.22821 2.03025 1.3376 1.92085C1.447 1.81146 1.59537 1.75 1.75008 1.75H12.2501C12.4048 1.75 12.5532 1.81146 12.6626 1.92085C12.772 2.03025 12.8334 2.17862 12.8334 2.33333V10.5C12.8334 10.6547 12.772 10.8031 12.6626 10.9125C12.5532 11.0219 12.4048 11.0833 12.2501 11.0833H3.7655ZM2.33341 10.7246L3.36183 9.91667H11.6667V2.91667H2.33341V10.7246ZM7.82491 6.41667L9.26867 7.86042L8.44383 8.68525L7.00008 7.2415L5.55633 8.68583L4.7315 7.861L6.17525 6.41667L4.73091 4.97292L5.55575 4.14808L7.00008 5.59183L8.44383 4.14808L9.26867 4.97292L7.82491 6.41667Z" fill="#0A566C"/>
</g>
</svg>
