<svg width="14" height="14" viewBox="0 0 14 14" fill="none" xmlns="http://www.w3.org/2000/svg">
<g id="icon/ep:edit">
<path id="Vector" d="M11.375 7C11.375 6.88397 11.4211 6.77269 11.5031 6.69064C11.5852 6.60859 11.6965 6.5625 11.8125 6.5625C11.9285 6.5625 12.0398 6.60859 12.1219 6.69064C12.2039 6.77269 12.25 6.88397 12.25 7V11.8125C12.25 11.9285 12.2039 12.0398 12.1219 12.1219C12.0398 12.2039 11.9285 12.25 11.8125 12.25H2.1875C2.07147 12.25 1.96019 12.2039 1.87814 12.1219C1.79609 12.0398 1.75 11.9285 1.75 11.8125V2.1875C1.75 2.07147 1.79609 1.96019 1.87814 1.87814C1.96019 1.79609 2.07147 1.75 2.1875 1.75H7C7.11603 1.75 7.22731 1.79609 7.30936 1.87814C7.39141 1.96019 7.4375 2.07147 7.4375 2.1875C7.4375 2.30353 7.39141 2.41481 7.30936 2.49686C7.22731 2.57891 7.11603 2.625 7 2.625H2.625V11.375H11.375V7Z" fill="#0A566C"/>
<path id="Vector_2" d="M6.42511 7.57747L7.14699 7.47422L11.5815 3.0406C11.6233 3.00024 11.6566 2.95197 11.6795 2.89859C11.7025 2.84521 11.7145 2.7878 11.715 2.72971C11.7155 2.67162 11.7045 2.61401 11.6825 2.56024C11.6605 2.50648 11.628 2.45763 11.5869 2.41655C11.5458 2.37547 11.497 2.34299 11.4432 2.32099C11.3894 2.29899 11.3318 2.28792 11.2737 2.28843C11.2157 2.28893 11.1582 2.301 11.1049 2.32393C11.0515 2.34686 11.0032 2.38019 10.9629 2.42197L6.52749 6.8556L6.42424 7.57747H6.42511ZM12.2001 1.80247C12.3221 1.92436 12.4188 2.06909 12.4848 2.22838C12.5509 2.38768 12.5848 2.55842 12.5848 2.73085C12.5848 2.90328 12.5509 3.07402 12.4848 3.23332C12.4188 3.39261 12.3221 3.53734 12.2001 3.65922L7.66324 8.1961C7.59633 8.26325 7.50943 8.30685 7.41561 8.32035L5.97186 8.52685C5.90458 8.53651 5.83597 8.53036 5.77147 8.50889C5.70698 8.48742 5.64837 8.45122 5.60031 8.40315C5.55224 8.35509 5.51604 8.29648 5.49457 8.23199C5.4731 8.16749 5.46695 8.09888 5.47661 8.0316L5.68311 6.58785C5.69637 6.49414 5.73966 6.40725 5.80649 6.34022L10.3442 1.80335C10.5904 1.55729 10.9241 1.41907 11.2722 1.41907C11.6202 1.41907 11.954 1.55729 12.2001 1.80335V1.80247Z" fill="#0A566C"/>
</g>
</svg>
