<svg width="14" height="14" viewBox="0 0 14 14" fill="none" xmlns="http://www.w3.org/2000/svg">
<g id="icon/bytesize:settingsmail">
<mask id="mask0_779_2470" style="mask-type:alpha" maskUnits="userSpaceOnUse" x="0" y="0" width="14" height="14">
<rect id="Bounding box" width="14" height="14" fill="#D9D9D9"/>
</mask>
<g mask="url(#mask0_779_2470)">
<path id="mail" d="M2.33317 11.6666C2.01234 11.6666 1.73768 11.5524 1.50921 11.3239C1.28074 11.0955 1.1665 10.8208 1.1665 10.5V3.49998C1.1665 3.17915 1.28074 2.90449 1.50921 2.67602C1.73768 2.44755 2.01234 2.33331 2.33317 2.33331H11.6665C11.9873 2.33331 12.262 2.44755 12.4905 2.67602C12.7189 2.90449 12.8332 3.17915 12.8332 3.49998V10.5C12.8332 10.8208 12.7189 11.0955 12.4905 11.3239C12.262 11.5524 11.9873 11.6666 11.6665 11.6666H2.33317ZM6.99984 7.58331L2.33317 4.66665V10.5H11.6665V4.66665L6.99984 7.58331ZM6.99984 6.41665L11.6665 3.49998H2.33317L6.99984 6.41665ZM2.33317 4.66665V3.49998V10.5V4.66665Z" fill="#0A566C"/>
</g>
</g>
</svg>
