<svg width="14" height="14" viewBox="0 0 14 14" fill="none" xmlns="http://www.w3.org/2000/svg">
<g id="icon/tdesign:help-rectangle">
<path id="Vector" d="M1.1665 1.16669H12.8332V12.8334H1.1665V1.16669ZM2.33317 2.33335V11.6667H11.6665V2.33335H2.33317ZM6.99984 4.22919C6.75856 4.22913 6.5232 4.30387 6.32617 4.44313C6.12914 4.58239 5.98014 4.77931 5.89967 5.00677L5.70484 5.55685L4.60525 5.16835L4.7995 4.61827C4.91993 4.27676 5.11818 3.96795 5.37857 3.71628C5.63895 3.46461 5.95432 3.27699 6.29974 3.16824C6.64515 3.0595 7.01113 3.03263 7.36873 3.08975C7.72632 3.14687 8.06572 3.28642 8.36007 3.49736C8.65442 3.7083 8.89564 3.98483 9.06467 4.3051C9.23369 4.62536 9.32587 4.98056 9.33392 5.34259C9.34196 5.70463 9.26565 6.06358 9.11102 6.39103C8.9564 6.71848 8.72769 7.00547 8.443 7.22927C8.19159 7.4276 7.96642 7.61777 7.80367 7.81785C7.64384 8.01502 7.58317 8.17369 7.58317 8.31252V9.04169H6.4165V8.31252C6.4165 7.80677 6.644 7.39494 6.89834 7.08169C7.15034 6.77252 7.4665 6.51352 7.72084 6.31285C7.91148 6.1629 8.05065 5.95726 8.11898 5.72453C8.18732 5.49181 8.18142 5.24357 8.1021 5.01435C8.02279 4.78514 7.874 4.58634 7.67645 4.44562C7.47889 4.30489 7.24239 4.22924 6.99984 4.22919ZM6.4165 9.62502H7.5855V10.794H6.4165V9.62502Z" fill="#0A566C"/>
</g>
</svg>
