<svg width="14" height="14" viewBox="0 0 14 14" fill="none" xmlns="http://www.w3.org/2000/svg">
<g id="icon/bytesize:settingscategory_search">
<mask id="mask0_779_2500" style="mask-type:alpha" maskUnits="userSpaceOnUse" x="0" y="0" width="14" height="14">
<rect id="Bounding box" width="14" height="14" fill="#D9D9D9"/>
</mask>
<g mask="url(#mask0_779_2500)">
<path id="category_search" d="M1.1665 11.9583V7.29165H5.83317V11.9583H1.1665ZM2.33317 10.7916H4.6665V8.45831H2.33317V10.7916ZM3.20817 5.83331L6.4165 0.583313L9.62484 5.83331H3.20817ZM5.279 4.66665H7.554L6.4165 2.82915L5.279 4.66665ZM12.5853 13.3875L11.0394 11.8416C10.8353 11.9778 10.6141 12.0798 10.3759 12.1479C10.1377 12.216 9.88734 12.25 9.62484 12.25C8.89567 12.25 8.27588 11.9948 7.76546 11.4844C7.25504 10.9739 6.99984 10.3541 6.99984 9.62498C6.99984 8.89581 7.25504 8.27602 7.76546 7.7656C8.27588 7.25519 8.89567 6.99998 9.62484 6.99998C10.354 6.99998 10.9738 7.25519 11.4842 7.7656C11.9946 8.27602 12.2498 8.89581 12.2498 9.62498C12.2498 9.87776 12.2158 10.1232 12.1478 10.3614C12.0797 10.5996 11.9825 10.8208 11.8561 11.025L13.4019 12.5708L12.5853 13.3875ZM9.62484 11.0833C10.0332 11.0833 10.3783 10.9423 10.6603 10.6604C10.9422 10.3785 11.0832 10.0333 11.0832 9.62498C11.0832 9.21665 10.9422 8.87151 10.6603 8.58956C10.3783 8.30762 10.0332 8.16665 9.62484 8.16665C9.2165 8.16665 8.87136 8.30762 8.58942 8.58956C8.30748 8.87151 8.1665 9.21665 8.1665 9.62498C8.1665 10.0333 8.30748 10.3785 8.58942 10.6604C8.87136 10.9423 9.2165 11.0833 9.62484 11.0833Z" fill="#0A566C"/>
</g>
</g>
</svg>
