<svg width="14" height="14" viewBox="0 0 14 14" fill="none" xmlns="http://www.w3.org/2000/svg">
<g id="icon/bytesize:settingsvisibility">
<mask id="mask0_779_2465" style="mask-type:alpha" maskUnits="userSpaceOnUse" x="0" y="0" width="14" height="14">
<rect id="Bounding box" width="14" height="14" fill="#D9D9D9"/>
</mask>
<g mask="url(#mask0_779_2465)">
<path id="visibility" d="M6.99992 9.33331C7.72908 9.33331 8.34888 9.0781 8.85929 8.56769C9.36971 8.05727 9.62492 7.43748 9.62492 6.70831C9.62492 5.97915 9.36971 5.35935 8.85929 4.84894C8.34888 4.33852 7.72908 4.08331 6.99992 4.08331C6.27075 4.08331 5.65096 4.33852 5.14054 4.84894C4.63013 5.35935 4.37492 5.97915 4.37492 6.70831C4.37492 7.43748 4.63013 8.05727 5.14054 8.56769C5.65096 9.0781 6.27075 9.33331 6.99992 9.33331ZM6.99992 8.28331C6.56242 8.28331 6.19054 8.13019 5.88429 7.82394C5.57804 7.51769 5.42492 7.14581 5.42492 6.70831C5.42492 6.27081 5.57804 5.89894 5.88429 5.59269C6.19054 5.28644 6.56242 5.13331 6.99992 5.13331C7.43742 5.13331 7.80929 5.28644 8.11554 5.59269C8.42179 5.89894 8.57492 6.27081 8.57492 6.70831C8.57492 7.14581 8.42179 7.51769 8.11554 7.82394C7.80929 8.13019 7.43742 8.28331 6.99992 8.28331ZM6.99992 11.0833C5.58047 11.0833 4.28742 10.6871 3.12075 9.89477C1.95408 9.10241 1.10825 8.04026 0.583252 6.70831C1.10825 5.37637 1.95408 4.31422 3.12075 3.52185C4.28742 2.72949 5.58047 2.33331 6.99992 2.33331C8.41936 2.33331 9.71242 2.72949 10.8791 3.52185C12.0458 4.31422 12.8916 5.37637 13.4166 6.70831C12.8916 8.04026 12.0458 9.10241 10.8791 9.89477C9.71242 10.6871 8.41936 11.0833 6.99992 11.0833ZM6.99992 9.91665C8.09853 9.91665 9.10721 9.62741 10.026 9.04894C10.9447 8.47047 11.6471 7.69026 12.1333 6.70831C11.6471 5.72637 10.9447 4.94616 10.026 4.36769C9.10721 3.78922 8.09853 3.49998 6.99992 3.49998C5.90131 3.49998 4.89263 3.78922 3.97388 4.36769C3.05513 4.94616 2.3527 5.72637 1.86659 6.70831C2.3527 7.69026 3.05513 8.47047 3.97388 9.04894C4.89263 9.62741 5.90131 9.91665 6.99992 9.91665Z" fill="#0A566C"/>
</g>
</g>
</svg>
