<svg width="15" height="16" viewBox="0 0 15 16" fill="none" xmlns="http://www.w3.org/2000/svg">
<g id="icon/ri:save-line">
<path id="Vector" d="M4.375 12.375V8.625H10.625V12.375H11.875V5.3925L10.1075 3.625H3.125V12.375H4.375ZM2.5 2.375H10.625L13.125 4.875V13C13.125 13.1658 13.0592 13.3247 12.9419 13.4419C12.8247 13.5592 12.6658 13.625 12.5 13.625H2.5C2.33424 13.625 2.17527 13.5592 2.05806 13.4419C1.94085 13.3247 1.875 13.1658 1.875 13V3C1.875 2.83424 1.94085 2.67527 2.05806 2.55806C2.17527 2.44085 2.33424 2.375 2.5 2.375ZM5.625 9.875V12.375H9.375V9.875H5.625Z" fill="#F2F2F2"/>
</g>
</svg>
