<svg width="14" height="14" viewBox="0 0 14 14" fill="none" xmlns="http://www.w3.org/2000/svg">
<g id="icon/ri:save-line">
<path id="Vector" d="M4.08333 11.0833V7.58333H9.91667V11.0833H11.0833V4.56633L9.43367 2.91667H2.91667V11.0833H4.08333ZM2.33333 1.75H9.91667L12.25 4.08333V11.6667C12.25 11.8214 12.1885 11.9697 12.0791 12.0791C11.9697 12.1885 11.8214 12.25 11.6667 12.25H2.33333C2.17862 12.25 2.03025 12.1885 1.92085 12.0791C1.81146 11.9697 1.75 11.8214 1.75 11.6667V2.33333C1.75 2.17862 1.81146 2.03025 1.92085 1.92085C2.03025 1.81146 2.17862 1.75 2.33333 1.75ZM5.25 8.75V11.0833H8.75V8.75H5.25Z" fill="#0A566C"/>
</g>
</svg>
