<svg width="14" height="14" viewBox="0 0 14 14" fill="none" xmlns="http://www.w3.org/2000/svg">
<g id="icon/bytesize:settingskey_vertical">
<mask id="mask0_779_2506" style="mask-type:alpha" maskUnits="userSpaceOnUse" x="0" y="0" width="14" height="14">
<rect id="Bounding box" width="14" height="14" fill="#D9D9D9"/>
</mask>
<g mask="url(#mask0_779_2506)">
<path id="key_vertical" d="M6.12484 4.08331C6.12484 3.76248 6.23907 3.48783 6.46755 3.25935C6.69602 3.03088 6.97067 2.91665 7.2915 2.91665C7.61234 2.91665 7.88699 3.03088 8.11546 3.25935C8.34393 3.48783 8.45817 3.76248 8.45817 4.08331C8.45817 4.40415 8.34393 4.6788 8.11546 4.90727C7.88699 5.13574 7.61234 5.24998 7.2915 5.24998C6.97067 5.24998 6.69602 5.13574 6.46755 4.90727C6.23907 4.6788 6.12484 4.40415 6.12484 4.08331ZM7.2915 14L4.6665 11.375L5.5415 10.2083L4.6665 9.04165L5.5415 7.80206V7.11665C5.0165 6.80554 4.59359 6.38505 4.27275 5.85519C3.95192 5.32533 3.7915 4.7347 3.7915 4.08331C3.7915 3.11109 4.13178 2.2847 4.81234 1.60415C5.49289 0.923591 6.31928 0.583313 7.2915 0.583313C8.26373 0.583313 9.09011 0.923591 9.77067 1.60415C10.4512 2.2847 10.7915 3.11109 10.7915 4.08331C10.7915 4.7347 10.6311 5.32533 10.3103 5.85519C9.98942 6.38505 9.5665 6.80554 9.0415 7.11665V12.25L7.2915 14ZM4.95817 4.08331C4.95817 4.62776 5.12345 5.10658 5.454 5.51977C5.78456 5.93297 6.20261 6.20762 6.70817 6.34373V8.16665L6.11025 9.01248L6.99984 10.2083L6.19775 11.2437L7.2915 12.3375L7.87484 11.7541V6.34373C8.38039 6.20762 8.79845 5.93297 9.129 5.51977C9.45956 5.10658 9.62484 4.62776 9.62484 4.08331C9.62484 3.44165 9.39636 2.89234 8.93942 2.4354C8.48248 1.97845 7.93317 1.74998 7.2915 1.74998C6.64984 1.74998 6.10053 1.97845 5.64359 2.4354C5.18664 2.89234 4.95817 3.44165 4.95817 4.08331Z" fill="#0A566C"/>
</g>
</g>
</svg>
