<svg width="14" height="14" viewBox="0 0 14 14" fill="none" xmlns="http://www.w3.org/2000/svg">
<g id="Group">
<path id="Vector" d="M5.6875 0.875V2.625L4.8125 3.0625L3.5 1.75L1.75 3.5L3.0625 4.8125L2.625 5.6875H0.875V8.3125H2.625L3.0625 9.1875L1.75 10.5L3.5 12.25L4.8125 10.9375L5.6875 11.375V13.125H8.3125V11.375L9.1875 10.9375L10.5 12.25L12.25 10.5L10.9375 9.1875L11.375 8.3125H13.125V5.6875H11.375L10.9375 4.8125L12.25 3.5L10.5 1.75L9.1875 3.0625L8.3125 2.625V0.875H5.6875Z" stroke="#0A566C" stroke-linecap="round" stroke-linejoin="round"/>
<path id="Vector_2" d="M7 8.75C7.9665 8.75 8.75 7.9665 8.75 7C8.75 6.0335 7.9665 5.25 7 5.25C6.0335 5.25 5.25 6.0335 5.25 7C5.25 7.9665 6.0335 8.75 7 8.75Z" stroke="#0A566C" stroke-linecap="round" stroke-linejoin="round"/>
</g>
</svg>
